<?xml version="1.0" encoding="UTF-8"?>
<svg id="Layer_1" data-name="Layer 1" xmlns="http://www.w3.org/2000/svg" viewBox="0 0 23.35 22.96">
  <defs>
    <style>
      .st0 {
        fill: #7fc2ce;
        fill-rule: evenodd;
      }
      .cls-1 {
        fill: #7fc2ce;
        fill-rule: evenodd;
      }
    </style>
  </defs>
  <path class="cls-1" d="M3.14,22.96l3.3-8.49-.07-.1c-.12-.18-.22-.37-.3-.57h0c-.09-.22-.15-.43-.22-.63h0c-.06-.19-.11-.36-.17-.51,0,0-.07-.18-.07-.2-.34-.94-1.49-4.05-1.48-4.39,0-.1.02-.19.05-.26.03-.08.08-.15.14-.2.07-.06.14-.11.23-.15.09-.03.18-.05.26-.05.57,0,.78.74.95,1.34.07.25.1.52.19.73.09.21.17.42.26.63.04.1.17.15.26.16.2.03.54-.35.62-.49.35-.67.59-1.6.78-2.58.18-.97.3-1.96.39-2.78l.04-.33c0-.07.02-.17.02-.24.04-.4.09-.9.27-1.06.02-.01.05-.03.07-.05.02,0,.06-.03.08-.04.04-.01.18-.05.22-.04.05,0,.2.02.24.04.04.02.12.08.15.11.03.03.03.08.06.12h0s.02.03.03.06h0s.02.04.03.07c.04.15-.06.81-.13,1.24h0c-.01.09-.03.18-.04.26l-.17,1.22c-.02.15-.04.32-.08.53-.03.2-.06.35-.08.48h0c-.07.39-.13.71-.09.97.05.33.02.55.42.66l.18.05c.17,0,.35-.14.41-.22.23-.29.7-2.12,1.15-3.63h0c.13-.43.25-.83.32-1.09.09-.31.17-.55.22-.68.02-.05.04-.09.07-.13.03-.04.05-.07.08-.1.03-.02.06-.04.09-.06.03-.02.06-.03.09-.03h0s.06,0,.1,0c.03,0,.07.01.1.02l.26.06s.07.03.11.06c.04.03.07.06.11.1.19.21.03.67-.14,1.15-.02.06-.04.11-.06.17-.01.04-.03.09-.05.15l-.06.18c-.15.46-.46,1.42-.74,2.33-.28.91-.58,1.53-.68,1.9-.12.42-.1.52.23.71.32.19.42.07.6-.18.19-.24.22-.31.34-.5.01-.03.03-.06.04-.1l.08-.17.02-.05,1.16-2.57h0s.06-.14.06-.14c.05-.12.09-.22.13-.31.18-.42.35-.82.53-1.08.14-.2.3-.3.48-.25.17.05.43.07.47.26.04.12.02.27-.03.45-.09.32-.28.69-.45,1.03l-.1.2c-.03.07-.06.13-.09.19h0c-.03.07-.08.16-.13.27l-.03.07c-.4.84-1.17,2.55-1.2,2.93-.06.15-.02.31.14.43.15.11.19.11.37.04.17-.06.3-.27.41-.46h0s.09-.18.09-.18c.08-.14.21-.4.33-.63.15-.27.34-.59.52-.92.18-.33.37-.62.52-.87.11-.18.26-.27.28-.29.03-.03.07-.05.12-.06.04-.01.09-.02.14-.02.04,0,.09.01.14.03.05.02.2.1.25.14.32.26,0,.79-.32,1.32-.04.07-.08.14-.13.21-.04.06-.07.12-.11.19l-.16.29h0s0,0,0,0c-.4.72-.8,1.43-1.16,2.11-.35.65-.55,1.31-.75,1.96h0c-.34,1.09-.66,2.12-1.67,2.78h0c-.13.08-.25.15-.37.21-.12.06-.24.11-.36.15l-.11.04-2.72,6.87h0s-.11.25-.11.25h14.08c1.26,0,.95-1.29.82-2.05-.15-.83-.4-1.69-.7-2.39-.67-1.6-1.48-2.71-2.45-3.73-.37-.39-1.14-1.1-1.67-1.42-.78-.48-1.28.27-1.98.78-1.11.81-2.47,1.32-3.88,1.47.5-.4.82-.89.107-1.42,3.05-.85,5.29-3.31,5.29-6.97S15.62,0,11.67,0s-7.09,3.1-7.23,6.97c-.03,0-.06.02-.08.03-.14.06-.27.14-.38.25-.1.1-.19.22-.25.36-.05.13-.09.27-.09.44-.01.43,1.16,3.61,1.51,4.57l.07.2c.05.14.09.27.14.42-.47.07-.91.51-1.19.73-2.03,1.62-3.47,4.14-4.02,6.79-.45,2.19,0,2.21,1.72,2.21h1.26"/>
</svg>